<mxfile host="drawio-plugin" modified="2021-09-13T09:41:45.967Z" agent="5.0 (X11; Linux x86_64) AppleWebKit/537.36 (KHTML, like Gecko) Chrome/89.0.4389.114 Safari/537.36" etag="60pZ0LlQRcGGGCvjIFGg" version="14.7.4" type="embed" pages="3"><diagram id="C5RBs43oDa-KdzZeNtuy" name="Classes"><mxGraphModel dx="1509" dy="397" grid="1" gridSize="10" guides="1" tooltips="1" connect="1" arrows="1" fold="1" page="0" pageScale="1" pageWidth="1169" pageHeight="827" math="0" shadow="0"><root><mxCell id="WIyWlLk6GJQsqaUBKTNV-0"/><mxCell id="WIyWlLk6GJQsqaUBKTNV-1" parent="WIyWlLk6GJQsqaUBKTNV-0"/><mxCell id="oHO1eAeOkqgCQ-GlMYRW-14" value="&lt;p style=&quot;margin: 0px ; margin-top: 4px ; text-align: center&quot;&gt;&lt;b&gt;Main&lt;/b&gt;&lt;/p&gt;&lt;hr size=&quot;1&quot;&gt;&lt;p style=&quot;margin: 0px ; margin-left: 4px&quot;&gt;+ field: ?&lt;/p&gt;&lt;hr size=&quot;1&quot;&gt;&lt;p style=&quot;margin: 0px ; margin-left: 4px&quot;&gt;+ start(Stage primaryStage): Type&lt;/p&gt;" style="verticalAlign=top;align=left;overflow=fill;fontSize=12;fontFamily=Helvetica;html=1;" parent="WIyWlLk6GJQsqaUBKTNV-1" vertex="1"><mxGeometry x="475" y="40" width="220" height="100" as="geometry"/></mxCell><mxCell id="oHO1eAeOkqgCQ-GlMYRW-17" value="gui" style="swimlane;align=left;" parent="WIyWlLk6GJQsqaUBKTNV-1" vertex="1"><mxGeometry x="-200" y="220" width="785" height="890" as="geometry"/></mxCell><mxCell id="oHO1eAeOkqgCQ-GlMYRW-5" value="&lt;p style=&quot;margin: 0px ; margin-top: 4px ; text-align: center&quot;&gt;&lt;i&gt;&amp;lt;&amp;lt;Interface&amp;gt;&amp;gt;&lt;/i&gt;&lt;br&gt;&lt;b&gt;GameField&lt;/b&gt;&lt;/p&gt;&lt;hr size=&quot;1&quot;&gt;&lt;p style=&quot;margin: 0px ; margin-left: 4px&quot;&gt;+ loadLevel(String name): Void&lt;br&gt;+ moveBot(?): ?&lt;/p&gt;" style="verticalAlign=top;align=left;overflow=fill;fontSize=12;fontFamily=Helvetica;html=1;" parent="oHO1eAeOkqgCQ-GlMYRW-17" vertex="1"><mxGeometry x="50" y="70" width="190" height="140" as="geometry"/></mxCell><mxCell id="49" style="edgeStyle=orthogonalEdgeStyle;rounded=0;orthogonalLoop=1;jettySize=auto;html=1;entryX=1;entryY=0.5;entryDx=0;entryDy=0;" parent="oHO1eAeOkqgCQ-GlMYRW-17" source="oHO1eAeOkqgCQ-GlMYRW-0" target="oHO1eAeOkqgCQ-GlMYRW-5" edge="1"><mxGeometry relative="1" as="geometry"/></mxCell><mxCell id="oHO1eAeOkqgCQ-GlMYRW-0" value="&lt;p style=&quot;margin: 0px ; margin-top: 4px ; text-align: center&quot;&gt;&lt;i&gt;&amp;lt;&amp;lt;Interface&amp;gt;&amp;gt;&lt;/i&gt;&lt;br&gt;&lt;b&gt;GUIConnector&lt;/b&gt;&lt;/p&gt;&lt;hr size=&quot;1&quot;&gt;&lt;p style=&quot;margin: 0px ; margin-left: 4px&quot;&gt;+ loadGameField(?): ?&lt;br&gt;+ loadEditor(?): ?&lt;/p&gt;&lt;p style=&quot;margin: 0px ; margin-left: 4px&quot;&gt;+ loadGameControls(?): ?&lt;/p&gt;" style="verticalAlign=top;align=left;overflow=fill;fontSize=12;fontFamily=Helvetica;html=1;" parent="oHO1eAeOkqgCQ-GlMYRW-17" vertex="1"><mxGeometry x="400" y="70" width="190" height="140" as="geometry"/></mxCell><mxCell id="oHO1eAeOkqgCQ-GlMYRW-1" value="&lt;p style=&quot;margin: 0px ; margin-top: 4px ; text-align: center&quot;&gt;&lt;b&gt;GameField2D&lt;/b&gt;&lt;/p&gt;&lt;hr size=&quot;1&quot;&gt;&lt;p style=&quot;margin: 0px ; margin-left: 4px&quot;&gt;+ field: Type&lt;/p&gt;&lt;hr size=&quot;1&quot;&gt;&lt;p style=&quot;margin: 0px ; margin-left: 4px&quot;&gt;+ method(): Type&lt;/p&gt;" style="verticalAlign=top;align=left;overflow=fill;fontSize=12;fontFamily=Helvetica;html=1;" parent="oHO1eAeOkqgCQ-GlMYRW-17" vertex="1"><mxGeometry x="65" y="350" width="160" height="90" as="geometry"/></mxCell><mxCell id="oHO1eAeOkqgCQ-GlMYRW-11" value="" style="endArrow=block;dashed=1;endFill=0;endSize=12;html=1;exitX=0.5;exitY=0;exitDx=0;exitDy=0;edgeStyle=orthogonalEdgeStyle;rounded=0;entryX=0.5;entryY=1;entryDx=0;entryDy=0;" parent="oHO1eAeOkqgCQ-GlMYRW-17" source="oHO1eAeOkqgCQ-GlMYRW-1" target="oHO1eAeOkqgCQ-GlMYRW-5" edge="1"><mxGeometry width="160" relative="1" as="geometry"><mxPoint x="360" y="320" as="sourcePoint"/><mxPoint x="240" y="240" as="targetPoint"/></mxGeometry></mxCell><mxCell id="oHO1eAeOkqgCQ-GlMYRW-21" value="&amp;nbsp;&lt;b&gt;Required&lt;/b&gt;&lt;br&gt;&lt;br&gt;Standard FX Gamefield with panes and buttons and stuff" style="shape=note;strokeWidth=2;fontSize=14;size=20;whiteSpace=wrap;html=1;fillColor=#fff2cc;strokeColor=#d6b656;fontColor=#666600;align=left;" parent="oHO1eAeOkqgCQ-GlMYRW-17" vertex="1"><mxGeometry x="140" y="430" width="130" height="120" as="geometry"/></mxCell><mxCell id="46" value="Loads" style="edgeStyle=orthogonalEdgeStyle;rounded=0;orthogonalLoop=1;jettySize=auto;html=1;entryX=1;entryY=0.5;entryDx=0;entryDy=0;exitX=0.25;exitY=0;exitDx=0;exitDy=0;" parent="oHO1eAeOkqgCQ-GlMYRW-17" source="44" target="oHO1eAeOkqgCQ-GlMYRW-1" edge="1"><mxGeometry relative="1" as="geometry"/></mxCell><mxCell id="50" value="set &lt;br&gt;gamefield" style="rounded=0;orthogonalLoop=1;jettySize=auto;html=1;exitX=0.25;exitY=0;exitDx=0;exitDy=0;entryX=0.302;entryY=1.012;entryDx=0;entryDy=0;entryPerimeter=0;" parent="oHO1eAeOkqgCQ-GlMYRW-17" source="44" target="oHO1eAeOkqgCQ-GlMYRW-0" edge="1"><mxGeometry relative="1" as="geometry"><mxPoint x="780" y="250" as="targetPoint"/></mxGeometry></mxCell><mxCell id="44" value="&lt;p style=&quot;margin: 0px ; margin-top: 4px ; text-align: center&quot;&gt;&lt;b&gt;Shell&lt;/b&gt;&lt;/p&gt;&lt;hr size=&quot;1&quot;&gt;&lt;p style=&quot;margin: 0px ; margin-left: 4px&quot;&gt;- field: Fieldtype[][]&lt;/p&gt;&lt;p style=&quot;margin: 0px ; margin-left: 4px&quot;&gt;- botRotation: Direction&lt;/p&gt;&lt;hr size=&quot;1&quot;&gt;&lt;p style=&quot;margin: 0px ; margin-left: 4px&quot;&gt;+ method(): Type&lt;/p&gt;" style="verticalAlign=top;align=left;overflow=fill;fontSize=12;fontFamily=Helvetica;html=1;" parent="oHO1eAeOkqgCQ-GlMYRW-17" vertex="1"><mxGeometry x="415" y="450" width="160" height="90" as="geometry"/></mxCell><mxCell id="48" value="" style="endArrow=block;dashed=1;endFill=0;endSize=12;html=1;edgeStyle=orthogonalEdgeStyle;rounded=0;entryX=0.5;entryY=1;entryDx=0;entryDy=0;exitX=0.5;exitY=0;exitDx=0;exitDy=0;" parent="oHO1eAeOkqgCQ-GlMYRW-17" source="44" target="oHO1eAeOkqgCQ-GlMYRW-0" edge="1"><mxGeometry width="160" relative="1" as="geometry"><mxPoint x="835" y="350" as="sourcePoint"/><mxPoint x="20" y="440" as="targetPoint"/></mxGeometry></mxCell><mxCell id="oHO1eAeOkqgCQ-GlMYRW-18" value="logic" style="swimlane;align=left;" parent="WIyWlLk6GJQsqaUBKTNV-1" vertex="1"><mxGeometry x="620" y="220" width="885" height="1180" as="geometry"/></mxCell><mxCell id="oHO1eAeOkqgCQ-GlMYRW-15" value="&lt;p style=&quot;margin: 0px ; margin-top: 4px ; text-align: center&quot;&gt;&lt;b&gt;GameData&lt;/b&gt;&lt;/p&gt;&lt;hr size=&quot;1&quot;&gt;&lt;p style=&quot;margin: 0px ; margin-left: 4px&quot;&gt;- field: Fieldtype[][]&lt;/p&gt;&lt;p style=&quot;margin: 0px ; margin-left: 4px&quot;&gt;- botRotation: Direction&lt;/p&gt;&lt;hr size=&quot;1&quot;&gt;&lt;p style=&quot;margin: 0px ; margin-left: 4px&quot;&gt;+ method(): Type&lt;/p&gt;" style="verticalAlign=top;align=left;overflow=fill;fontSize=12;fontFamily=Helvetica;html=1;" parent="oHO1eAeOkqgCQ-GlMYRW-18" vertex="1"><mxGeometry x="362.5" y="95" width="160" height="90" as="geometry"/></mxCell><mxCell id="11" value="" style="group" parent="oHO1eAeOkqgCQ-GlMYRW-18" vertex="1" connectable="0"><mxGeometry x="40" y="900" width="160" height="260" as="geometry"/></mxCell><mxCell id="1" value="&lt;p style=&quot;margin: 0px ; margin-top: 4px ; text-align: center&quot;&gt;&lt;b&gt;JsonAdapter&lt;/b&gt;&lt;br&gt;&lt;/p&gt;&lt;hr size=&quot;1&quot;&gt;&lt;p style=&quot;margin: 0px ; margin-left: 4px&quot;&gt;+ write(): void&lt;br&gt;+ read(): void&lt;/p&gt;" style="verticalAlign=top;align=left;overflow=fill;fontSize=12;fontFamily=Helvetica;html=1;" parent="11" vertex="1"><mxGeometry y="190" width="160" height="70" as="geometry"/></mxCell><mxCell id="6" style="edgeStyle=orthogonalEdgeStyle;rounded=0;orthogonalLoop=1;jettySize=auto;html=1;entryX=0.5;entryY=1;entryDx=0;entryDy=0;endArrow=circlePlus;endFill=0;" parent="11" source="1" target="0" edge="1"><mxGeometry relative="1" as="geometry"/></mxCell><mxCell id="0" value="&lt;p style=&quot;margin: 0px ; margin-top: 4px ; text-align: center&quot;&gt;&lt;b&gt;Fieldtype&lt;/b&gt;&lt;/p&gt;&lt;hr size=&quot;1&quot;&gt;&lt;p style=&quot;margin: 0px ; margin-left: 4px&quot;&gt;+ ABYSS&lt;/p&gt;&lt;p style=&quot;margin: 0px ; margin-left: 4px&quot;&gt;+ COIN&lt;br&gt;+ DOOR&lt;/p&gt;&lt;p style=&quot;margin: 0px ; margin-left: 4px&quot;&gt;+ NORMAL&lt;br&gt;+ START&lt;br&gt;+ WALL&lt;/p&gt;&lt;hr size=&quot;1&quot;&gt;&lt;p style=&quot;margin: 0px ; margin-left: 4px&quot;&gt;+ fromOrdinal(int): Fieldtype&lt;/p&gt;" style="verticalAlign=top;align=left;overflow=fill;fontSize=12;fontFamily=Helvetica;html=1;" parent="11" vertex="1"><mxGeometry width="160" height="150" as="geometry"/></mxCell><mxCell id="7" value="" style="group" parent="oHO1eAeOkqgCQ-GlMYRW-18" vertex="1" connectable="0"><mxGeometry x="250" y="900" width="160" height="260" as="geometry"/></mxCell><mxCell id="3" value="&lt;p style=&quot;margin: 0px ; margin-top: 4px ; text-align: center&quot;&gt;&lt;b&gt;Direction&lt;/b&gt;&lt;/p&gt;&lt;hr size=&quot;1&quot;&gt;&lt;p style=&quot;margin: 0px ; margin-left: 4px&quot;&gt;+ NORTH&lt;br&gt;&lt;/p&gt;&lt;p style=&quot;margin: 0px ; margin-left: 4px&quot;&gt;+ EAST&lt;/p&gt;&lt;p style=&quot;margin: 0px ; margin-left: 4px&quot;&gt;+ SOUTH&lt;/p&gt;&lt;p style=&quot;margin: 0px ; margin-left: 4px&quot;&gt;+ WEST&lt;/p&gt;&lt;hr size=&quot;1&quot;&gt;&lt;p style=&quot;margin: 0px ; margin-left: 4px&quot;&gt;+ fromOrdinal(int): Direction&lt;/p&gt;" style="verticalAlign=top;align=left;overflow=fill;fontSize=12;fontFamily=Helvetica;html=1;" parent="7" vertex="1"><mxGeometry width="160" height="120" as="geometry"/></mxCell><mxCell id="4" value="&lt;p style=&quot;margin: 0px ; margin-top: 4px ; text-align: center&quot;&gt;&lt;b&gt;JsonAdapter&lt;/b&gt;&lt;/p&gt;&lt;hr size=&quot;1&quot;&gt;&lt;p style=&quot;margin: 0px ; margin-left: 4px&quot;&gt;+ write(): void&lt;br&gt;+ read(): void&lt;/p&gt;" style="verticalAlign=top;align=left;overflow=fill;fontSize=12;fontFamily=Helvetica;html=1;" parent="7" vertex="1"><mxGeometry y="190" width="160" height="70" as="geometry"/></mxCell><mxCell id="5" style="edgeStyle=orthogonalEdgeStyle;rounded=0;orthogonalLoop=1;jettySize=auto;html=1;entryX=0.5;entryY=1;entryDx=0;entryDy=0;endArrow=circlePlus;endFill=0;" parent="7" source="4" target="3" edge="1"><mxGeometry relative="1" as="geometry"/></mxCell><mxCell id="24" value="saves data in GD" style="edgeStyle=none;rounded=0;sketch=0;jumpStyle=none;orthogonalLoop=1;jettySize=auto;html=1;entryX=0.25;entryY=1;entryDx=0;entryDy=0;startArrow=none;startFill=0;exitX=0.75;exitY=0;exitDx=0;exitDy=0;" parent="oHO1eAeOkqgCQ-GlMYRW-18" source="16" target="oHO1eAeOkqgCQ-GlMYRW-15" edge="1"><mxGeometry x="-0.027" relative="1" as="geometry"><mxPoint as="offset"/></mxGeometry></mxCell><mxCell id="16" value="&lt;p style=&quot;margin: 0px ; margin-top: 4px ; text-align: center&quot;&gt;&lt;b&gt;Bot&lt;/b&gt;&lt;/p&gt;&lt;hr size=&quot;1&quot;&gt;&lt;p style=&quot;margin: 0px ; margin-left: 4px&quot;&gt;+ field: Type&lt;/p&gt;&lt;hr size=&quot;1&quot;&gt;&lt;p style=&quot;margin: 0px ; margin-left: 4px&quot;&gt;+ method(): Type&lt;/p&gt;" style="verticalAlign=top;align=left;overflow=fill;fontSize=12;fontFamily=Helvetica;html=1;" parent="oHO1eAeOkqgCQ-GlMYRW-18" vertex="1"><mxGeometry x="210" y="280" width="150" height="90" as="geometry"/></mxCell><mxCell id="33" value="uses BotController" style="edgeStyle=none;rounded=0;orthogonalLoop=1;jettySize=auto;html=1;entryX=0.5;entryY=1;entryDx=0;entryDy=0;" parent="oHO1eAeOkqgCQ-GlMYRW-18" source="26" target="16" edge="1"><mxGeometry relative="1" as="geometry"/></mxCell><mxCell id="37" value="throws" style="edgeStyle=orthogonalEdgeStyle;rounded=0;orthogonalLoop=1;jettySize=auto;html=1;entryX=0.5;entryY=0;entryDx=0;entryDy=0;" parent="oHO1eAeOkqgCQ-GlMYRW-18" source="26" target="35" edge="1"><mxGeometry relative="1" as="geometry"/></mxCell><mxCell id="26" value="&lt;p style=&quot;margin: 0px ; margin-top: 4px ; text-align: center&quot;&gt;&lt;b&gt;Procedure&lt;/b&gt;&lt;/p&gt;&lt;hr size=&quot;1&quot;&gt;&lt;p style=&quot;margin: 0px ; margin-left: 4px&quot;&gt;- field:&amp;nbsp;&lt;br&gt;&lt;/p&gt;&lt;hr size=&quot;1&quot;&gt;&lt;p style=&quot;margin: 0px ; margin-left: 4px&quot;&gt;+ method(): Type&lt;/p&gt;" style="verticalAlign=top;align=left;overflow=fill;fontSize=12;fontFamily=Helvetica;html=1;" parent="oHO1eAeOkqgCQ-GlMYRW-18" vertex="1"><mxGeometry x="70" y="490" width="210" height="90" as="geometry"/></mxCell><mxCell id="28" value="&lt;b&gt;Handles custom procedures by user&lt;br&gt;&lt;/b&gt;" style="shape=note;strokeWidth=2;fontSize=14;size=11;whiteSpace=wrap;html=1;fillColor=#fff2cc;strokeColor=#d6b656;fontColor=#666600;align=left;" parent="oHO1eAeOkqgCQ-GlMYRW-18" vertex="1"><mxGeometry x="195" y="565" width="132.5" height="50" as="geometry"/></mxCell><mxCell id="29" value="&lt;p style=&quot;margin: 0px ; margin-top: 4px ; text-align: center&quot;&gt;&lt;b&gt;Vector&lt;/b&gt;&lt;/p&gt;&lt;hr size=&quot;1&quot;&gt;&lt;p style=&quot;margin: 0px ; margin-left: 4px&quot;&gt;+ field: Type&lt;/p&gt;&lt;hr size=&quot;1&quot;&gt;&lt;p style=&quot;margin: 0px ; margin-left: 4px&quot;&gt;+ method(): Type&lt;/p&gt;" style="verticalAlign=top;align=left;overflow=fill;fontSize=12;fontFamily=Helvetica;html=1;" parent="oHO1eAeOkqgCQ-GlMYRW-18" vertex="1"><mxGeometry x="670" y="900" width="160" height="90" as="geometry"/></mxCell><mxCell id="31" value="creates" style="edgeStyle=none;rounded=0;orthogonalLoop=1;jettySize=auto;html=1;" parent="oHO1eAeOkqgCQ-GlMYRW-18" source="30" target="oHO1eAeOkqgCQ-GlMYRW-15" edge="1"><mxGeometry relative="1" as="geometry"/></mxCell><mxCell id="32" value="creates" style="edgeStyle=none;rounded=0;orthogonalLoop=1;jettySize=auto;html=1;entryX=0.25;entryY=0;entryDx=0;entryDy=0;exitX=0.75;exitY=1;exitDx=0;exitDy=0;" parent="oHO1eAeOkqgCQ-GlMYRW-18" source="30" target="16" edge="1"><mxGeometry relative="1" as="geometry"/></mxCell><mxCell id="34" value="executes Procedure" style="edgeStyle=none;rounded=0;orthogonalLoop=1;jettySize=auto;html=1;entryX=0.25;entryY=0;entryDx=0;entryDy=0;exitX=0.25;exitY=1;exitDx=0;exitDy=0;" parent="oHO1eAeOkqgCQ-GlMYRW-18" source="30" target="26" edge="1"><mxGeometry relative="1" as="geometry"/></mxCell><mxCell id="30" value="&lt;p style=&quot;margin: 0px ; margin-top: 4px ; text-align: center&quot;&gt;&lt;b&gt;GameLogic&lt;/b&gt;&lt;/p&gt;&lt;hr size=&quot;1&quot;&gt;&lt;p style=&quot;margin: 0px ; margin-left: 4px&quot;&gt;- field: Fieldtype[][]&lt;/p&gt;&lt;p style=&quot;margin: 0px ; margin-left: 4px&quot;&gt;- botRotation: Direction&lt;/p&gt;&lt;hr size=&quot;1&quot;&gt;&lt;p style=&quot;margin: 0px ; margin-left: 4px&quot;&gt;+ method(): Type&lt;/p&gt;" style="verticalAlign=top;align=left;overflow=fill;fontSize=12;fontFamily=Helvetica;html=1;" parent="oHO1eAeOkqgCQ-GlMYRW-18" vertex="1"><mxGeometry x="80" y="95" width="160" height="90" as="geometry"/></mxCell><mxCell id="38" value="" style="group" parent="oHO1eAeOkqgCQ-GlMYRW-18" vertex="1" connectable="0"><mxGeometry x="460" y="900" width="160" height="260" as="geometry"/></mxCell><mxCell id="39" value="&lt;p style=&quot;margin: 0px ; margin-top: 4px ; text-align: center&quot;&gt;&lt;b&gt;Instruction&lt;/b&gt;&lt;/p&gt;&lt;hr size=&quot;1&quot;&gt;&lt;p style=&quot;margin: 0px ; margin-left: 4px&quot;&gt;+ FORWARD&lt;br&gt;&lt;/p&gt;&lt;p style=&quot;margin: 0px ; margin-left: 4px&quot;&gt;+ TURNLEFT&lt;/p&gt;&lt;p style=&quot;margin: 0px ; margin-left: 4px&quot;&gt;+ TURNRIGHT&lt;/p&gt;&lt;p style=&quot;margin: 0px ; margin-left: 4px&quot;&gt;+ JUMP&lt;/p&gt;&lt;p style=&quot;margin: 0px ; margin-left: 4px&quot;&gt;+ EXIT&lt;/p&gt;&lt;hr size=&quot;1&quot;&gt;&lt;p style=&quot;margin: 0px ; margin-left: 4px&quot;&gt;+&amp;nbsp;&lt;/p&gt;" style="verticalAlign=top;align=left;overflow=fill;fontSize=12;fontFamily=Helvetica;html=1;" parent="38" vertex="1"><mxGeometry width="160" height="130" as="geometry"/></mxCell><mxCell id="40" value="&lt;p style=&quot;margin: 0px ; margin-top: 4px ; text-align: center&quot;&gt;&lt;b&gt;JsonAdapter&lt;/b&gt;&lt;/p&gt;&lt;hr size=&quot;1&quot;&gt;&lt;p style=&quot;margin: 0px ; margin-left: 4px&quot;&gt;+ write(): void&lt;br&gt;+ read(): void&lt;/p&gt;" style="verticalAlign=top;align=left;overflow=fill;fontSize=12;fontFamily=Helvetica;html=1;" parent="38" vertex="1"><mxGeometry y="190" width="160" height="70" as="geometry"/></mxCell><mxCell id="41" style="edgeStyle=orthogonalEdgeStyle;rounded=0;orthogonalLoop=1;jettySize=auto;html=1;entryX=0.5;entryY=1;entryDx=0;entryDy=0;endArrow=circlePlus;endFill=0;" parent="38" source="40" target="39" edge="1"><mxGeometry relative="1" as="geometry"/></mxCell><mxCell id="42" value="" style="group" parent="oHO1eAeOkqgCQ-GlMYRW-18" vertex="1" connectable="0"><mxGeometry x="70" y="660" width="232.5" height="120" as="geometry"/></mxCell><mxCell id="35" value="&lt;p style=&quot;margin: 0px ; margin-top: 4px ; text-align: center&quot;&gt;&lt;b&gt;ProcedureException&lt;/b&gt;&lt;/p&gt;&lt;hr size=&quot;1&quot;&gt;&lt;p style=&quot;margin: 0px ; margin-left: 4px&quot;&gt;- field:&amp;nbsp;&lt;br&gt;&lt;/p&gt;&lt;hr size=&quot;1&quot;&gt;&lt;p style=&quot;margin: 0px ; margin-left: 4px&quot;&gt;+ method(): Type&lt;/p&gt;" style="verticalAlign=top;align=left;overflow=fill;fontSize=12;fontFamily=Helvetica;html=1;" parent="42" vertex="1"><mxGeometry width="210" height="90" as="geometry"/></mxCell><mxCell id="36" value="&lt;b&gt;Information about why Procedure Execution failed&lt;br&gt;&lt;/b&gt;" style="shape=note;strokeWidth=2;fontSize=14;size=11;whiteSpace=wrap;html=1;fillColor=#fff2cc;strokeColor=#d6b656;fontColor=#666600;align=left;" parent="42" vertex="1"><mxGeometry x="100" y="70" width="132.5" height="50" as="geometry"/></mxCell><mxCell id="13" value="use" style="edgeStyle=orthogonalEdgeStyle;rounded=0;orthogonalLoop=1;jettySize=auto;html=1;entryX=1;entryY=0.5;entryDx=0;entryDy=0;exitX=0;exitY=0.5;exitDx=0;exitDy=0;" parent="WIyWlLk6GJQsqaUBKTNV-1" source="30" target="oHO1eAeOkqgCQ-GlMYRW-0" edge="1"><mxGeometry relative="1" as="geometry"><mxPoint x="675" y="360" as="sourcePoint"/></mxGeometry></mxCell></root></mxGraphModel></diagram><diagram id="-C5NWrTEYGYfF0ujI5Jj" name="POP"><mxGraphModel dx="1185" dy="685" grid="1" gridSize="10" guides="1" tooltips="1" connect="1" arrows="1" fold="1" page="1" pageScale="1" pageWidth="827" pageHeight="1169" math="0" shadow="0"><root><mxCell id="-fzJ4giKKpnKiDsCN4Nk-0"/><mxCell id="-fzJ4giKKpnKiDsCN4Nk-1" parent="-fzJ4giKKpnKiDsCN4Nk-0"/><mxCell id="-fzJ4giKKpnKiDsCN4Nk-6" value="ex" style="group" parent="-fzJ4giKKpnKiDsCN4Nk-1" vertex="1" connectable="0"><mxGeometry x="40" y="320" width="750" height="680" as="geometry"/></mxCell><mxCell id="-fzJ4giKKpnKiDsCN4Nk-2" value="" style="rounded=1;whiteSpace=wrap;html=1;fillColor=#cce5ff;arcSize=5;strokeColor=none;" parent="-fzJ4giKKpnKiDsCN4Nk-6" vertex="1"><mxGeometry width="750" height="440" as="geometry"/></mxCell><mxCell id="-fzJ4giKKpnKiDsCN4Nk-8" value="&lt;b&gt;&lt;font color=&quot;#000000&quot; style=&quot;font-size: 24px&quot;&gt;LOGIC&lt;/font&gt;&lt;/b&gt;" style="text;html=1;strokeColor=none;fillColor=none;align=left;verticalAlign=middle;whiteSpace=wrap;rounded=0;" parent="-fzJ4giKKpnKiDsCN4Nk-6" vertex="1"><mxGeometry x="10" y="10" width="90" height="30" as="geometry"/></mxCell><mxCell id="bRLpqyRPm-7UNNvtKSWn-7" value="Kommunikation&lt;br&gt;mit dem GUI" style="edgeStyle=orthogonalEdgeStyle;rounded=0;orthogonalLoop=1;jettySize=auto;html=1;entryX=0;entryY=0.5;entryDx=0;entryDy=0;endArrow=block;endFill=0;exitX=0.75;exitY=0;exitDx=0;exitDy=0;" edge="1" parent="-fzJ4giKKpnKiDsCN4Nk-6" source="bRLpqyRPm-7UNNvtKSWn-2" target="bRLpqyRPm-7UNNvtKSWn-5"><mxGeometry x="0.0769" relative="1" as="geometry"><mxPoint as="offset"/></mxGeometry></mxCell><mxCell id="bRLpqyRPm-7UNNvtKSWn-18" value="uses GameData as&lt;br&gt;State Manager" style="edgeStyle=none;rounded=0;orthogonalLoop=1;jettySize=auto;html=1;entryX=0.5;entryY=0;entryDx=0;entryDy=0;endArrow=block;endFill=0;" edge="1" parent="-fzJ4giKKpnKiDsCN4Nk-6" source="bRLpqyRPm-7UNNvtKSWn-2" target="bRLpqyRPm-7UNNvtKSWn-17"><mxGeometry relative="1" as="geometry"/></mxCell><mxCell id="bRLpqyRPm-7UNNvtKSWn-22" value="creates" style="edgeStyle=orthogonalEdgeStyle;rounded=0;orthogonalLoop=1;jettySize=auto;html=1;entryX=0;entryY=0.5;entryDx=0;entryDy=0;endArrow=block;endFill=0;exitX=0;exitY=0.5;exitDx=0;exitDy=0;" edge="1" parent="-fzJ4giKKpnKiDsCN4Nk-6" source="bRLpqyRPm-7UNNvtKSWn-2" target="bRLpqyRPm-7UNNvtKSWn-21"><mxGeometry relative="1" as="geometry"><Array as="points"><mxPoint x="50" y="95"/><mxPoint x="50" y="305"/></Array></mxGeometry></mxCell><mxCell id="bRLpqyRPm-7UNNvtKSWn-2" value="&lt;font color=&quot;#000000&quot; size=&quot;1&quot;&gt;&lt;b style=&quot;font-size: 14px&quot;&gt;GameLogic&lt;/b&gt;&lt;/font&gt;" style="rounded=0;whiteSpace=wrap;html=1;align=center;fillColor=#eeeeee;strokeColor=#36393d;strokeWidth=2;" vertex="1" parent="-fzJ4giKKpnKiDsCN4Nk-6"><mxGeometry x="80" y="80" width="120" height="30" as="geometry"/></mxCell><mxCell id="bRLpqyRPm-7UNNvtKSWn-5" value="&lt;font color=&quot;#000000&quot; size=&quot;1&quot;&gt;&lt;i style=&quot;font-size: 12px&quot;&gt;interface&lt;/i&gt;&lt;br&gt;&lt;b style=&quot;font-size: 14px&quot;&gt;GUIConnector&lt;/b&gt;&lt;/font&gt;" style="rounded=0;whiteSpace=wrap;html=1;align=center;fillColor=#eeeeee;strokeColor=#36393d;strokeWidth=2;" vertex="1" parent="-fzJ4giKKpnKiDsCN4Nk-6"><mxGeometry x="280" y="40" width="120" height="40" as="geometry"/></mxCell><mxCell id="bRLpqyRPm-7UNNvtKSWn-17" value="&lt;font color=&quot;#000000&quot; size=&quot;1&quot;&gt;&lt;b style=&quot;font-size: 14px&quot;&gt;GameData&lt;/b&gt;&lt;/font&gt;" style="rounded=0;whiteSpace=wrap;html=1;align=center;fillColor=#eeeeee;strokeColor=#36393d;strokeWidth=2;" vertex="1" parent="-fzJ4giKKpnKiDsCN4Nk-6"><mxGeometry x="80" y="210" width="120" height="30" as="geometry"/></mxCell><mxCell id="bRLpqyRPm-7UNNvtKSWn-19" value="&lt;font color=&quot;#000000&quot; size=&quot;1&quot;&gt;&lt;b style=&quot;font-size: 14px&quot;&gt;Field&lt;/b&gt;&lt;/font&gt;" style="rounded=0;whiteSpace=wrap;html=1;align=center;fillColor=#eeeeee;strokeColor=#36393d;strokeWidth=2;" vertex="1" parent="-fzJ4giKKpnKiDsCN4Nk-6"><mxGeometry x="314" y="210" width="120" height="30" as="geometry"/></mxCell><mxCell id="bRLpqyRPm-7UNNvtKSWn-23" value="position data" style="edgeStyle=orthogonalEdgeStyle;rounded=0;orthogonalLoop=1;jettySize=auto;html=1;entryX=0.5;entryY=1;entryDx=0;entryDy=0;endArrow=block;endFill=0;" edge="1" parent="-fzJ4giKKpnKiDsCN4Nk-6" source="bRLpqyRPm-7UNNvtKSWn-21" target="bRLpqyRPm-7UNNvtKSWn-17"><mxGeometry relative="1" as="geometry"/></mxCell><mxCell id="bRLpqyRPm-7UNNvtKSWn-25" style="edgeStyle=orthogonalEdgeStyle;rounded=0;orthogonalLoop=1;jettySize=auto;html=1;entryX=0.5;entryY=0;entryDx=0;entryDy=0;endArrow=block;endFill=0;dashed=1;" edge="1" parent="-fzJ4giKKpnKiDsCN4Nk-6" source="bRLpqyRPm-7UNNvtKSWn-21" target="bRLpqyRPm-7UNNvtKSWn-24"><mxGeometry relative="1" as="geometry"/></mxCell><mxCell id="bRLpqyRPm-7UNNvtKSWn-26" value="updates" style="rounded=0;orthogonalLoop=1;jettySize=auto;html=1;entryX=0.5;entryY=1;entryDx=0;entryDy=0;endArrow=block;endFill=0;exitX=0.75;exitY=0;exitDx=0;exitDy=0;" edge="1" parent="-fzJ4giKKpnKiDsCN4Nk-6" source="bRLpqyRPm-7UNNvtKSWn-21" target="bRLpqyRPm-7UNNvtKSWn-5"><mxGeometry relative="1" as="geometry"/></mxCell><mxCell id="bRLpqyRPm-7UNNvtKSWn-28" value="executes" style="edgeStyle=none;rounded=0;orthogonalLoop=1;jettySize=auto;html=1;entryX=0;entryY=0.5;entryDx=0;entryDy=0;endArrow=block;endFill=0;" edge="1" parent="-fzJ4giKKpnKiDsCN4Nk-6" source="bRLpqyRPm-7UNNvtKSWn-21" target="bRLpqyRPm-7UNNvtKSWn-27"><mxGeometry relative="1" as="geometry"/></mxCell><mxCell id="bRLpqyRPm-7UNNvtKSWn-21" value="&lt;font color=&quot;#000000&quot; size=&quot;1&quot;&gt;&lt;b style=&quot;font-size: 14px&quot;&gt;Bot&lt;/b&gt;&lt;/font&gt;" style="rounded=0;whiteSpace=wrap;html=1;align=center;fillColor=#eeeeee;strokeColor=#36393d;strokeWidth=2;" vertex="1" parent="-fzJ4giKKpnKiDsCN4Nk-6"><mxGeometry x="80" y="290" width="120" height="30" as="geometry"/></mxCell><mxCell id="bRLpqyRPm-7UNNvtKSWn-24" value="&lt;font color=&quot;#000000&quot; size=&quot;1&quot;&gt;&lt;i style=&quot;font-size: 12px&quot;&gt;interface&lt;/i&gt;&lt;br&gt;&lt;b style=&quot;font-size: 14px&quot;&gt;BotController&lt;/b&gt;&lt;/font&gt;" style="rounded=0;whiteSpace=wrap;html=1;align=center;fillColor=#eeeeee;strokeColor=#36393d;strokeWidth=2;" vertex="1" parent="-fzJ4giKKpnKiDsCN4Nk-6"><mxGeometry x="80" y="370" width="120" height="40" as="geometry"/></mxCell><mxCell id="bRLpqyRPm-7UNNvtKSWn-20" value="state&lt;br&gt;Management" style="edgeStyle=none;rounded=0;orthogonalLoop=1;jettySize=auto;html=1;entryX=0;entryY=0.5;entryDx=0;entryDy=0;endArrow=block;endFill=0;" edge="1" parent="-fzJ4giKKpnKiDsCN4Nk-6" source="bRLpqyRPm-7UNNvtKSWn-17" target="bRLpqyRPm-7UNNvtKSWn-19"><mxGeometry relative="1" as="geometry"/></mxCell><mxCell id="bRLpqyRPm-7UNNvtKSWn-30" value="uses" style="edgeStyle=none;rounded=0;orthogonalLoop=1;jettySize=auto;html=1;entryX=0.5;entryY=0;entryDx=0;entryDy=0;endArrow=block;endFill=0;" edge="1" parent="-fzJ4giKKpnKiDsCN4Nk-6" source="bRLpqyRPm-7UNNvtKSWn-27" target="bRLpqyRPm-7UNNvtKSWn-29"><mxGeometry relative="1" as="geometry"/></mxCell><mxCell id="bRLpqyRPm-7UNNvtKSWn-27" value="&lt;font color=&quot;#000000&quot; size=&quot;1&quot;&gt;&lt;b style=&quot;font-size: 14px&quot;&gt;Procedure&lt;/b&gt;&lt;/font&gt;" style="rounded=0;whiteSpace=wrap;html=1;align=center;fillColor=#eeeeee;strokeColor=#36393d;strokeWidth=2;" vertex="1" parent="-fzJ4giKKpnKiDsCN4Nk-6"><mxGeometry x="315" y="290" width="120" height="30" as="geometry"/></mxCell><mxCell id="bRLpqyRPm-7UNNvtKSWn-29" value="&lt;font color=&quot;#000000&quot; size=&quot;1&quot;&gt;&lt;b style=&quot;font-size: 14px&quot;&gt;Instruction&lt;/b&gt;&lt;/font&gt;" style="rounded=0;whiteSpace=wrap;html=1;align=center;fillColor=#eeeeee;strokeColor=#36393d;strokeWidth=2;" vertex="1" parent="-fzJ4giKKpnKiDsCN4Nk-6"><mxGeometry x="314" y="380" width="120" height="30" as="geometry"/></mxCell><mxCell id="bRLpqyRPm-7UNNvtKSWn-14" value="" style="group" vertex="1" connectable="0" parent="-fzJ4giKKpnKiDsCN4Nk-1"><mxGeometry x="39" y="80" width="750" height="200" as="geometry"/></mxCell><mxCell id="-fzJ4giKKpnKiDsCN4Nk-3" value="" style="rounded=1;whiteSpace=wrap;html=1;fillColor=#cdeb8b;arcSize=5;strokeColor=none;" parent="bRLpqyRPm-7UNNvtKSWn-14" vertex="1"><mxGeometry width="750" height="200" as="geometry"/></mxCell><mxCell id="-fzJ4giKKpnKiDsCN4Nk-9" value="&lt;b&gt;&lt;font color=&quot;#000000&quot; style=&quot;font-size: 24px&quot;&gt;GUI&lt;/font&gt;&lt;/b&gt;" style="text;html=1;strokeColor=none;fillColor=none;align=left;verticalAlign=middle;whiteSpace=wrap;rounded=0;" parent="bRLpqyRPm-7UNNvtKSWn-14" vertex="1"><mxGeometry x="11" y="10" width="70" height="30" as="geometry"/></mxCell><mxCell id="-fzJ4giKKpnKiDsCN4Nk-10" value="&lt;font color=&quot;#000000&quot; size=&quot;1&quot;&gt;&lt;b style=&quot;font-size: 14px&quot;&gt;ShellController&lt;/b&gt;&lt;/font&gt;" style="rounded=0;whiteSpace=wrap;html=1;align=center;fillColor=#eeeeee;strokeColor=#36393d;strokeWidth=2;" parent="bRLpqyRPm-7UNNvtKSWn-14" vertex="1"><mxGeometry x="81" y="80" width="120" height="30" as="geometry"/></mxCell><mxCell id="-fzJ4giKKpnKiDsCN4Nk-12" value="launches" style="edgeStyle=orthogonalEdgeStyle;rounded=0;orthogonalLoop=1;jettySize=auto;html=1;entryX=0.5;entryY=0;entryDx=0;entryDy=0;" parent="bRLpqyRPm-7UNNvtKSWn-14" source="-fzJ4giKKpnKiDsCN4Nk-11" target="-fzJ4giKKpnKiDsCN4Nk-10" edge="1"><mxGeometry relative="1" as="geometry"/></mxCell><mxCell id="-fzJ4giKKpnKiDsCN4Nk-11" value="&lt;font color=&quot;#000000&quot; size=&quot;1&quot;&gt;&lt;b style=&quot;font-size: 14px&quot;&gt;Main&lt;/b&gt;&lt;/font&gt;" style="rounded=0;whiteSpace=wrap;html=1;align=center;fillColor=#eeeeee;strokeColor=#36393d;strokeWidth=2;" parent="bRLpqyRPm-7UNNvtKSWn-14" vertex="1"><mxGeometry x="81" y="10" width="120" height="30" as="geometry"/></mxCell><mxCell id="bRLpqyRPm-7UNNvtKSWn-0" value="&lt;font color=&quot;#000000&quot; size=&quot;1&quot;&gt;&lt;b style=&quot;font-size: 14px&quot;&gt;GUI&lt;/b&gt;&lt;/font&gt;" style="rounded=0;whiteSpace=wrap;html=1;align=center;fillColor=#eeeeee;strokeColor=#36393d;strokeWidth=2;" vertex="1" parent="bRLpqyRPm-7UNNvtKSWn-14"><mxGeometry x="281" y="80" width="120" height="30" as="geometry"/></mxCell><mxCell id="bRLpqyRPm-7UNNvtKSWn-1" value="creates" style="edgeStyle=orthogonalEdgeStyle;rounded=0;orthogonalLoop=1;jettySize=auto;html=1;" edge="1" parent="bRLpqyRPm-7UNNvtKSWn-14" source="-fzJ4giKKpnKiDsCN4Nk-10" target="bRLpqyRPm-7UNNvtKSWn-0"><mxGeometry relative="1" as="geometry"/></mxCell><mxCell id="bRLpqyRPm-7UNNvtKSWn-8" value="&lt;font color=&quot;#000000&quot;&gt;&lt;i style=&quot;font-size: 12px&quot;&gt;interface&lt;/i&gt;&lt;br&gt;&lt;span style=&quot;font-size: 14px&quot;&gt;&lt;b&gt;GameField&lt;/b&gt;&lt;/span&gt;&lt;br&gt;&lt;/font&gt;" style="rounded=0;whiteSpace=wrap;html=1;align=center;fillColor=#eeeeee;strokeColor=#36393d;strokeWidth=2;" vertex="1" parent="bRLpqyRPm-7UNNvtKSWn-14"><mxGeometry x="481" y="140" width="120" height="40" as="geometry"/></mxCell><mxCell id="bRLpqyRPm-7UNNvtKSWn-9" value="updates" style="edgeStyle=orthogonalEdgeStyle;rounded=0;orthogonalLoop=1;jettySize=auto;html=1;entryX=0;entryY=0.5;entryDx=0;entryDy=0;endArrow=block;endFill=0;exitX=1;exitY=0.75;exitDx=0;exitDy=0;" edge="1" parent="bRLpqyRPm-7UNNvtKSWn-14" source="bRLpqyRPm-7UNNvtKSWn-0" target="bRLpqyRPm-7UNNvtKSWn-8"><mxGeometry relative="1" as="geometry"/></mxCell><mxCell id="bRLpqyRPm-7UNNvtKSWn-12" value="implementiert" style="edgeStyle=orthogonalEdgeStyle;rounded=0;orthogonalLoop=1;jettySize=auto;html=1;dashed=1;endArrow=block;endFill=0;" edge="1" parent="bRLpqyRPm-7UNNvtKSWn-14" source="bRLpqyRPm-7UNNvtKSWn-10" target="bRLpqyRPm-7UNNvtKSWn-8"><mxGeometry relative="1" as="geometry"/></mxCell><mxCell id="bRLpqyRPm-7UNNvtKSWn-10" value="&lt;font color=&quot;#000000&quot; size=&quot;1&quot;&gt;&lt;b style=&quot;font-size: 14px&quot;&gt;GameField2D&lt;/b&gt;&lt;/font&gt;" style="rounded=0;whiteSpace=wrap;html=1;align=center;fillColor=#eeeeee;strokeColor=#36393d;strokeWidth=2;" vertex="1" parent="bRLpqyRPm-7UNNvtKSWn-14"><mxGeometry x="481" y="40" width="120" height="30" as="geometry"/></mxCell><mxCell id="bRLpqyRPm-7UNNvtKSWn-13" value="initial Load" style="edgeStyle=orthogonalEdgeStyle;rounded=0;orthogonalLoop=1;jettySize=auto;html=1;exitX=1;exitY=0.25;exitDx=0;exitDy=0;entryX=0;entryY=0.5;entryDx=0;entryDy=0;endArrow=block;endFill=0;" edge="1" parent="bRLpqyRPm-7UNNvtKSWn-14" source="bRLpqyRPm-7UNNvtKSWn-0" target="bRLpqyRPm-7UNNvtKSWn-10"><mxGeometry relative="1" as="geometry"/></mxCell><mxCell id="bRLpqyRPm-7UNNvtKSWn-15" value="" style="group" vertex="1" connectable="0" parent="-fzJ4giKKpnKiDsCN4Nk-1"><mxGeometry x="440" y="800" width="350" height="80" as="geometry"/></mxCell><mxCell id="-fzJ4giKKpnKiDsCN4Nk-4" value="" style="rounded=1;whiteSpace=wrap;html=1;fillColor=#ffff88;arcSize=5;strokeColor=#36393d;" parent="bRLpqyRPm-7UNNvtKSWn-15" vertex="1"><mxGeometry width="350" height="80" as="geometry"/></mxCell><mxCell id="-fzJ4giKKpnKiDsCN4Nk-7" value="&lt;b&gt;&lt;font color=&quot;#000000&quot; style=&quot;font-size: 24px&quot;&gt;UTIL&lt;/font&gt;&lt;/b&gt;" style="text;html=1;strokeColor=none;fillColor=none;align=left;verticalAlign=middle;whiteSpace=wrap;rounded=0;" parent="bRLpqyRPm-7UNNvtKSWn-15" vertex="1"><mxGeometry x="10" y="10" width="70" height="7.5" as="geometry"/></mxCell><mxCell id="bRLpqyRPm-7UNNvtKSWn-6" value="implementiert" style="rounded=0;orthogonalLoop=1;jettySize=auto;html=1;endArrow=block;endFill=0;dashed=1;" edge="1" parent="-fzJ4giKKpnKiDsCN4Nk-1" source="bRLpqyRPm-7UNNvtKSWn-0" target="bRLpqyRPm-7UNNvtKSWn-5"><mxGeometry x="-0.6491" relative="1" as="geometry"><mxPoint as="offset"/></mxGeometry></mxCell><mxCell id="bRLpqyRPm-7UNNvtKSWn-3" value="creates" style="edgeStyle=orthogonalEdgeStyle;rounded=0;orthogonalLoop=1;jettySize=auto;html=1;entryX=0.5;entryY=0;entryDx=0;entryDy=0;endArrow=block;endFill=0;" edge="1" parent="-fzJ4giKKpnKiDsCN4Nk-1" source="-fzJ4giKKpnKiDsCN4Nk-10" target="bRLpqyRPm-7UNNvtKSWn-2"><mxGeometry x="-0.6552" relative="1" as="geometry"><mxPoint as="offset"/></mxGeometry></mxCell></root></mxGraphModel></diagram><diagram name="POP_v2" id="VVQmsqX2oAbkhAQyU4NF"><mxGraphModel dx="1109" dy="397" grid="1" gridSize="10" guides="1" tooltips="1" connect="1" arrows="1" fold="1" page="1" pageScale="1" pageWidth="827" pageHeight="1169" math="0" shadow="0"><root><mxCell id="KAFQ1BYG84NQ4d7QAkvF-0"/><mxCell id="KAFQ1BYG84NQ4d7QAkvF-1" parent="KAFQ1BYG84NQ4d7QAkvF-0"/><mxCell id="KAFQ1BYG84NQ4d7QAkvF-22" value="" style="group" parent="KAFQ1BYG84NQ4d7QAkvF-1" vertex="1" connectable="0"><mxGeometry x="38" y="200" width="750" height="200" as="geometry"/></mxCell><mxCell id="KAFQ1BYG84NQ4d7QAkvF-23" value="" style="rounded=1;whiteSpace=wrap;html=1;fillColor=#cdeb8b;arcSize=5;strokeColor=none;" parent="KAFQ1BYG84NQ4d7QAkvF-22" vertex="1"><mxGeometry width="750" height="200" as="geometry"/></mxCell><mxCell id="KAFQ1BYG84NQ4d7QAkvF-24" value="&lt;b&gt;&lt;font color=&quot;#000000&quot; style=&quot;font-size: 24px&quot;&gt;GUI&lt;/font&gt;&lt;/b&gt;" style="text;html=1;strokeColor=none;fillColor=none;align=left;verticalAlign=middle;whiteSpace=wrap;rounded=0;" parent="KAFQ1BYG84NQ4d7QAkvF-22" vertex="1"><mxGeometry x="11" y="10" width="70" height="30" as="geometry"/></mxCell><mxCell id="KAFQ1BYG84NQ4d7QAkvF-25" value="&lt;font color=&quot;#000000&quot; size=&quot;1&quot;&gt;&lt;b style=&quot;font-size: 14px&quot;&gt;ShellController&lt;/b&gt;&lt;/font&gt;" style="rounded=0;whiteSpace=wrap;html=1;align=center;fillColor=#eeeeee;strokeColor=#36393d;strokeWidth=2;" parent="KAFQ1BYG84NQ4d7QAkvF-22" vertex="1"><mxGeometry x="81" y="80" width="120" height="30" as="geometry"/></mxCell><mxCell id="KAFQ1BYG84NQ4d7QAkvF-26" value="launches" style="edgeStyle=orthogonalEdgeStyle;rounded=0;orthogonalLoop=1;jettySize=auto;html=1;entryX=0.5;entryY=0;entryDx=0;entryDy=0;" parent="KAFQ1BYG84NQ4d7QAkvF-22" source="KAFQ1BYG84NQ4d7QAkvF-27" target="KAFQ1BYG84NQ4d7QAkvF-25" edge="1"><mxGeometry relative="1" as="geometry"/></mxCell><mxCell id="KAFQ1BYG84NQ4d7QAkvF-27" value="&lt;font color=&quot;#000000&quot; size=&quot;1&quot;&gt;&lt;b style=&quot;font-size: 14px&quot;&gt;Main&lt;/b&gt;&lt;/font&gt;" style="rounded=0;whiteSpace=wrap;html=1;align=center;fillColor=#eeeeee;strokeColor=#36393d;strokeWidth=2;" parent="KAFQ1BYG84NQ4d7QAkvF-22" vertex="1"><mxGeometry x="81" y="10" width="120" height="30" as="geometry"/></mxCell><mxCell id="KAFQ1BYG84NQ4d7QAkvF-28" value="&lt;font size=&quot;1&quot; color=&quot;#000000&quot;&gt;&lt;b style=&quot;font-size: 14px&quot;&gt;JavaFxUI&lt;/b&gt;&lt;/font&gt;" style="rounded=0;whiteSpace=wrap;html=1;align=center;fillColor=#eeeeee;strokeColor=#36393d;strokeWidth=2;" parent="KAFQ1BYG84NQ4d7QAkvF-22" vertex="1"><mxGeometry x="281" y="80" width="120" height="30" as="geometry"/></mxCell><mxCell id="KAFQ1BYG84NQ4d7QAkvF-29" value="creates" style="edgeStyle=orthogonalEdgeStyle;rounded=0;orthogonalLoop=1;jettySize=auto;html=1;" parent="KAFQ1BYG84NQ4d7QAkvF-22" source="KAFQ1BYG84NQ4d7QAkvF-25" target="KAFQ1BYG84NQ4d7QAkvF-28" edge="1"><mxGeometry relative="1" as="geometry"/></mxCell><mxCell id="KAFQ1BYG84NQ4d7QAkvF-33" value="&lt;font size=&quot;1&quot; color=&quot;#000000&quot;&gt;&lt;b style=&quot;font-size: 14px&quot;&gt;GameFieldController&lt;/b&gt;&lt;/font&gt;" style="rounded=0;whiteSpace=wrap;html=1;align=center;fillColor=#eeeeee;strokeColor=#36393d;strokeWidth=2;" parent="KAFQ1BYG84NQ4d7QAkvF-22" vertex="1"><mxGeometry x="481" y="30" width="149" height="30" as="geometry"/></mxCell><mxCell id="KAFQ1BYG84NQ4d7QAkvF-34" value="initial Load" style="edgeStyle=orthogonalEdgeStyle;rounded=0;orthogonalLoop=1;jettySize=auto;html=1;exitX=1;exitY=0.25;exitDx=0;exitDy=0;entryX=0;entryY=0.5;entryDx=0;entryDy=0;endArrow=block;endFill=0;" parent="KAFQ1BYG84NQ4d7QAkvF-22" source="KAFQ1BYG84NQ4d7QAkvF-28" target="KAFQ1BYG84NQ4d7QAkvF-33" edge="1"><mxGeometry relative="1" as="geometry"/></mxCell><mxCell id="KAFQ1BYG84NQ4d7QAkvF-78" value="" style="group" parent="KAFQ1BYG84NQ4d7QAkvF-1" vertex="1" connectable="0"><mxGeometry x="39" y="440" width="750" height="440" as="geometry"/></mxCell><mxCell id="KAFQ1BYG84NQ4d7QAkvF-3" value="" style="rounded=1;whiteSpace=wrap;html=1;fillColor=#cce5ff;arcSize=5;strokeColor=none;" parent="KAFQ1BYG84NQ4d7QAkvF-78" vertex="1"><mxGeometry width="750" height="440" as="geometry"/></mxCell><mxCell id="KAFQ1BYG84NQ4d7QAkvF-4" value="&lt;b&gt;&lt;font color=&quot;#000000&quot; style=&quot;font-size: 24px&quot;&gt;LOGIC&lt;/font&gt;&lt;/b&gt;" style="text;html=1;strokeColor=none;fillColor=none;align=left;verticalAlign=middle;whiteSpace=wrap;rounded=0;" parent="KAFQ1BYG84NQ4d7QAkvF-78" vertex="1"><mxGeometry x="10" y="10" width="90" height="30" as="geometry"/></mxCell><mxCell id="KAFQ1BYG84NQ4d7QAkvF-8" value="&lt;font size=&quot;1&quot; color=&quot;#000000&quot;&gt;&lt;b style=&quot;font-size: 14px&quot;&gt;GameController&lt;/b&gt;&lt;/font&gt;" style="rounded=0;whiteSpace=wrap;html=1;align=center;fillColor=#eeeeee;strokeColor=#36393d;strokeWidth=2;" parent="KAFQ1BYG84NQ4d7QAkvF-78" vertex="1"><mxGeometry x="80" y="80" width="120" height="30" as="geometry"/></mxCell><mxCell id="KAFQ1BYG84NQ4d7QAkvF-9" value="&lt;font size=&quot;1&quot; color=&quot;#000000&quot;&gt;&lt;i style=&quot;font-size: 12px&quot;&gt;interface&lt;/i&gt;&lt;br&gt;&lt;b style=&quot;font-size: 14px&quot;&gt;UserInterface&lt;/b&gt;&lt;/font&gt;" style="rounded=0;whiteSpace=wrap;html=1;align=center;fillColor=#eeeeee;strokeColor=#36393d;strokeWidth=2;" parent="KAFQ1BYG84NQ4d7QAkvF-78" vertex="1"><mxGeometry x="280" y="40" width="120" height="40" as="geometry"/></mxCell><mxCell id="KAFQ1BYG84NQ4d7QAkvF-5" value="Kommunikation&lt;br&gt;mit dem GUI" style="edgeStyle=orthogonalEdgeStyle;rounded=0;orthogonalLoop=1;jettySize=auto;html=1;entryX=0;entryY=0.5;entryDx=0;entryDy=0;endArrow=block;endFill=0;exitX=0.75;exitY=0;exitDx=0;exitDy=0;" parent="KAFQ1BYG84NQ4d7QAkvF-78" source="KAFQ1BYG84NQ4d7QAkvF-8" target="KAFQ1BYG84NQ4d7QAkvF-9" edge="1"><mxGeometry as="geometry"><mxPoint x="-5" y="-10" as="offset"/></mxGeometry></mxCell><mxCell id="KAFQ1BYG84NQ4d7QAkvF-10" value="&lt;font size=&quot;1&quot; color=&quot;#000000&quot;&gt;&lt;b style=&quot;font-size: 14px&quot;&gt;GameService&lt;/b&gt;&lt;/font&gt;" style="rounded=0;whiteSpace=wrap;html=1;align=center;fillColor=#eeeeee;strokeColor=#36393d;strokeWidth=2;" parent="KAFQ1BYG84NQ4d7QAkvF-78" vertex="1"><mxGeometry x="315" y="160" width="120" height="30" as="geometry"/></mxCell><mxCell id="KAFQ1BYG84NQ4d7QAkvF-11" value="&lt;font color=&quot;#000000&quot; size=&quot;1&quot;&gt;&lt;b style=&quot;font-size: 14px&quot;&gt;Field&lt;/b&gt;&lt;/font&gt;" style="rounded=0;whiteSpace=wrap;html=1;align=center;fillColor=#eeeeee;strokeColor=#36393d;strokeWidth=2;" parent="KAFQ1BYG84NQ4d7QAkvF-78" vertex="1"><mxGeometry x="549" y="160" width="120" height="30" as="geometry"/></mxCell><mxCell id="KAFQ1BYG84NQ4d7QAkvF-12" value="position data" style="edgeStyle=orthogonalEdgeStyle;rounded=0;orthogonalLoop=1;jettySize=auto;html=1;entryX=0.5;entryY=1;entryDx=0;entryDy=0;endArrow=block;endFill=0;" parent="KAFQ1BYG84NQ4d7QAkvF-78" source="KAFQ1BYG84NQ4d7QAkvF-16" target="KAFQ1BYG84NQ4d7QAkvF-10" edge="1"><mxGeometry as="geometry"><mxPoint x="3" y="15" as="offset"/></mxGeometry></mxCell><mxCell id="KAFQ1BYG84NQ4d7QAkvF-14" value="updates Bot Position/Rotation" style="rounded=0;orthogonalLoop=1;jettySize=auto;html=1;entryX=0.5;entryY=1;entryDx=0;entryDy=0;endArrow=block;endFill=0;exitX=0.75;exitY=0;exitDx=0;exitDy=0;" parent="KAFQ1BYG84NQ4d7QAkvF-78" source="KAFQ1BYG84NQ4d7QAkvF-16" target="KAFQ1BYG84NQ4d7QAkvF-9" edge="1"><mxGeometry as="geometry"><mxPoint x="-45" y="38" as="offset"/></mxGeometry></mxCell><mxCell id="KAFQ1BYG84NQ4d7QAkvF-16" value="&lt;font size=&quot;1&quot; color=&quot;#000000&quot;&gt;&lt;b style=&quot;font-size: 14px&quot;&gt;BotImpl&lt;/b&gt;&lt;/font&gt;" style="rounded=0;whiteSpace=wrap;html=1;align=center;fillColor=#eeeeee;strokeColor=#36393d;strokeWidth=2;" parent="KAFQ1BYG84NQ4d7QAkvF-78" vertex="1"><mxGeometry x="80" y="205" width="120" height="30" as="geometry"/></mxCell><mxCell id="KAFQ1BYG84NQ4d7QAkvF-7" value="creates" style="edgeStyle=orthogonalEdgeStyle;rounded=0;orthogonalLoop=1;jettySize=auto;html=1;entryX=0;entryY=0.5;entryDx=0;entryDy=0;endArrow=block;endFill=0;exitX=0;exitY=0.5;exitDx=0;exitDy=0;" parent="KAFQ1BYG84NQ4d7QAkvF-78" source="KAFQ1BYG84NQ4d7QAkvF-8" target="KAFQ1BYG84NQ4d7QAkvF-16" edge="1"><mxGeometry as="geometry"><Array as="points"><mxPoint x="50" y="95"/><mxPoint x="50" y="220"/></Array><mxPoint x="-30" y="3" as="offset"/></mxGeometry></mxCell><mxCell id="KAFQ1BYG84NQ4d7QAkvF-17" value="&lt;font size=&quot;1&quot; color=&quot;#000000&quot;&gt;&lt;i style=&quot;font-size: 12px&quot;&gt;interface&lt;/i&gt;&lt;br&gt;&lt;b style=&quot;font-size: 14px&quot;&gt;Bot&lt;/b&gt;&lt;/font&gt;" style="rounded=0;whiteSpace=wrap;html=1;align=center;fillColor=#eeeeee;strokeColor=#36393d;strokeWidth=2;" parent="KAFQ1BYG84NQ4d7QAkvF-78" vertex="1"><mxGeometry x="80" y="285" width="120" height="40" as="geometry"/></mxCell><mxCell id="KAFQ1BYG84NQ4d7QAkvF-13" style="edgeStyle=orthogonalEdgeStyle;rounded=0;orthogonalLoop=1;jettySize=auto;html=1;entryX=0.5;entryY=0;entryDx=0;entryDy=0;endArrow=block;endFill=0;dashed=1;" parent="KAFQ1BYG84NQ4d7QAkvF-78" source="KAFQ1BYG84NQ4d7QAkvF-16" target="KAFQ1BYG84NQ4d7QAkvF-17" edge="1"><mxGeometry as="geometry"/></mxCell><mxCell id="KAFQ1BYG84NQ4d7QAkvF-18" value="state&lt;br&gt;Management" style="edgeStyle=none;rounded=0;orthogonalLoop=1;jettySize=auto;html=1;entryX=0;entryY=0.5;entryDx=0;entryDy=0;endArrow=block;endFill=0;" parent="KAFQ1BYG84NQ4d7QAkvF-78" source="KAFQ1BYG84NQ4d7QAkvF-10" target="KAFQ1BYG84NQ4d7QAkvF-11" edge="1"><mxGeometry as="geometry"/></mxCell><mxCell id="KAFQ1BYG84NQ4d7QAkvF-20" value="&lt;font color=&quot;#000000&quot; size=&quot;1&quot;&gt;&lt;b style=&quot;font-size: 14px&quot;&gt;Procedure&lt;/b&gt;&lt;/font&gt;" style="rounded=0;whiteSpace=wrap;html=1;align=center;fillColor=#eeeeee;strokeColor=#36393d;strokeWidth=2;" parent="KAFQ1BYG84NQ4d7QAkvF-78" vertex="1"><mxGeometry x="314" y="376" width="120" height="30" as="geometry"/></mxCell><mxCell id="KAFQ1BYG84NQ4d7QAkvF-15" value="executes" style="edgeStyle=orthogonalEdgeStyle;rounded=0;orthogonalLoop=1;jettySize=auto;html=1;entryX=0;entryY=0.5;entryDx=0;entryDy=0;endArrow=block;endFill=0;exitX=1;exitY=0.75;exitDx=0;exitDy=0;" parent="KAFQ1BYG84NQ4d7QAkvF-78" source="KAFQ1BYG84NQ4d7QAkvF-16" target="KAFQ1BYG84NQ4d7QAkvF-20" edge="1"><mxGeometry as="geometry"><Array as="points"><mxPoint x="240" y="227"/><mxPoint x="240" y="391"/></Array><mxPoint x="-17" y="-19" as="offset"/></mxGeometry></mxCell><mxCell id="KAFQ1BYG84NQ4d7QAkvF-6" value="uses GameService as&lt;br&gt;State Manager" style="edgeStyle=orthogonalEdgeStyle;rounded=0;orthogonalLoop=1;jettySize=auto;html=1;entryX=0.5;entryY=0;entryDx=0;entryDy=0;endArrow=block;endFill=0;" parent="KAFQ1BYG84NQ4d7QAkvF-78" source="KAFQ1BYG84NQ4d7QAkvF-8" target="KAFQ1BYG84NQ4d7QAkvF-10" edge="1"><mxGeometry as="geometry"><Array as="points"><mxPoint x="140" y="130"/><mxPoint x="375" y="130"/></Array></mxGeometry></mxCell><mxCell id="KAFQ1BYG84NQ4d7QAkvF-46" value="&lt;font color=&quot;#000000&quot; size=&quot;1&quot;&gt;&lt;i style=&quot;font-size: 12px&quot;&gt;enum&lt;/i&gt;&lt;br&gt;&lt;b style=&quot;font-size: 14px&quot;&gt;Direction&lt;/b&gt;&lt;/font&gt;" style="rounded=0;whiteSpace=wrap;html=1;align=center;fillColor=#eeeeee;strokeColor=#36393d;strokeWidth=2;" parent="KAFQ1BYG84NQ4d7QAkvF-78" vertex="1"><mxGeometry x="314" y="285" width="120" height="40" as="geometry"/></mxCell><mxCell id="KAFQ1BYG84NQ4d7QAkvF-45" value="bot direction" style="edgeStyle=orthogonalEdgeStyle;rounded=0;orthogonalLoop=1;jettySize=auto;html=1;exitX=0.75;exitY=1;exitDx=0;exitDy=0;entryX=0.75;entryY=0;entryDx=0;entryDy=0;endArrow=block;endFill=0;" parent="KAFQ1BYG84NQ4d7QAkvF-78" source="KAFQ1BYG84NQ4d7QAkvF-10" target="KAFQ1BYG84NQ4d7QAkvF-46" edge="1"><mxGeometry as="geometry"><mxPoint x="405" y="290" as="targetPoint"/></mxGeometry></mxCell><mxCell id="KAFQ1BYG84NQ4d7QAkvF-75" value="&lt;font color=&quot;#000000&quot; size=&quot;1&quot;&gt;&lt;i style=&quot;font-size: 12px&quot;&gt;enum&lt;/i&gt;&lt;br&gt;&lt;b style=&quot;font-size: 14px&quot;&gt;Fieldtype&lt;/b&gt;&lt;/font&gt;" style="rounded=0;whiteSpace=wrap;html=1;align=center;fillColor=#eeeeee;strokeColor=#36393d;strokeWidth=2;" parent="KAFQ1BYG84NQ4d7QAkvF-78" vertex="1"><mxGeometry x="549" y="285" width="120" height="40" as="geometry"/></mxCell><mxCell id="KAFQ1BYG84NQ4d7QAkvF-76" value="&lt;font color=&quot;#000000&quot; size=&quot;1&quot;&gt;&lt;i style=&quot;font-size: 12px&quot;&gt;enum&lt;/i&gt;&lt;br&gt;&lt;b style=&quot;font-size: 14px&quot;&gt;Instruction&lt;/b&gt;&lt;/font&gt;" style="rounded=0;whiteSpace=wrap;html=1;align=center;fillColor=#eeeeee;strokeColor=#36393d;strokeWidth=2;" parent="KAFQ1BYG84NQ4d7QAkvF-78" vertex="1"><mxGeometry x="549" y="370" width="120" height="40" as="geometry"/></mxCell><mxCell id="KAFQ1BYG84NQ4d7QAkvF-43" value="uses" style="edgeStyle=orthogonalEdgeStyle;rounded=0;orthogonalLoop=1;jettySize=auto;html=1;endArrow=block;endFill=0;entryX=0.5;entryY=0;entryDx=0;entryDy=0;" parent="KAFQ1BYG84NQ4d7QAkvF-78" source="KAFQ1BYG84NQ4d7QAkvF-11" target="KAFQ1BYG84NQ4d7QAkvF-75" edge="1"><mxGeometry as="geometry"><mxPoint x="609" y="290" as="targetPoint"/></mxGeometry></mxCell><mxCell id="KAFQ1BYG84NQ4d7QAkvF-19" value="Execution&lt;br&gt;Instructions" style="edgeStyle=none;rounded=0;orthogonalLoop=1;jettySize=auto;html=1;entryX=0;entryY=0.5;entryDx=0;entryDy=0;endArrow=block;endFill=0;" parent="KAFQ1BYG84NQ4d7QAkvF-78" source="KAFQ1BYG84NQ4d7QAkvF-20" target="KAFQ1BYG84NQ4d7QAkvF-76" edge="1"><mxGeometry as="geometry"><mxPoint x="540" y="395" as="targetPoint"/></mxGeometry></mxCell><mxCell id="KAFQ1BYG84NQ4d7QAkvF-30" value="&lt;font color=&quot;#000000&quot;&gt;&lt;i style=&quot;font-size: 12px&quot;&gt;interface&lt;/i&gt;&lt;br&gt;&lt;span style=&quot;font-size: 14px&quot;&gt;&lt;b&gt;GameBoard&lt;/b&gt;&lt;/span&gt;&lt;br&gt;&lt;/font&gt;" style="rounded=0;whiteSpace=wrap;html=1;align=center;fillColor=#eeeeee;strokeColor=#36393d;strokeWidth=2;" parent="KAFQ1BYG84NQ4d7QAkvF-78" vertex="1"><mxGeometry x="480" y="40" width="149" height="40" as="geometry"/></mxCell><mxCell id="KAFQ1BYG84NQ4d7QAkvF-39" value="creates" style="edgeStyle=orthogonalEdgeStyle;rounded=0;orthogonalLoop=1;jettySize=auto;html=1;entryX=0.5;entryY=0;entryDx=0;entryDy=0;endArrow=block;endFill=0;" parent="KAFQ1BYG84NQ4d7QAkvF-1" source="KAFQ1BYG84NQ4d7QAkvF-25" target="KAFQ1BYG84NQ4d7QAkvF-8" edge="1"><mxGeometry x="-0.6552" relative="1" as="geometry"><mxPoint as="offset"/></mxGeometry></mxCell><mxCell id="KAFQ1BYG84NQ4d7QAkvF-38" value="implementiert" style="rounded=0;orthogonalLoop=1;jettySize=auto;html=1;endArrow=block;endFill=0;dashed=1;" parent="KAFQ1BYG84NQ4d7QAkvF-1" source="KAFQ1BYG84NQ4d7QAkvF-28" target="KAFQ1BYG84NQ4d7QAkvF-9" edge="1"><mxGeometry x="-0.6491" relative="1" as="geometry"><mxPoint as="offset"/></mxGeometry></mxCell><mxCell id="KAFQ1BYG84NQ4d7QAkvF-31" value="updates" style="edgeStyle=orthogonalEdgeStyle;rounded=0;orthogonalLoop=1;jettySize=auto;html=1;entryX=0;entryY=0.5;entryDx=0;entryDy=0;endArrow=block;endFill=0;exitX=1;exitY=0.75;exitDx=0;exitDy=0;" parent="KAFQ1BYG84NQ4d7QAkvF-1" source="KAFQ1BYG84NQ4d7QAkvF-28" target="KAFQ1BYG84NQ4d7QAkvF-30" edge="1"><mxGeometry relative="1" as="geometry"/></mxCell><mxCell id="KAFQ1BYG84NQ4d7QAkvF-32" value="implementiert" style="edgeStyle=orthogonalEdgeStyle;rounded=0;orthogonalLoop=1;jettySize=auto;html=1;dashed=1;endArrow=block;endFill=0;" parent="KAFQ1BYG84NQ4d7QAkvF-1" source="KAFQ1BYG84NQ4d7QAkvF-33" target="KAFQ1BYG84NQ4d7QAkvF-30" edge="1"><mxGeometry relative="1" as="geometry"/></mxCell></root></mxGraphModel></diagram></mxfile>